# xmcd
#
# Track frame offsets: 
#        150
#        16370
#        37143
#
# Disc length: 735 seconds
#
# Revision: 0
# Processed by: cddbd v1.5.2PL0 Copyright (c) Steve Scherf et al.
# Submitted via: ExactAudioCopyFreeDBPlugin 1.0
#
DISCID=1f02dd03
DTITLE=Juliane Werding - Sie weiﬂ was sie wil
DYEAR=1992
DGENRE=Folk
TTITLE0=Sie weiﬂ was sie will
TTITLE1=Eiskalter Sommer
TTITLE2=Sie weiﬂ was sie will (instrumental)
EXTD=
EXTT0=
EXTT1=
EXTT2=
PLAYORDER=
